# xmcd
#
# Track frame offsets: 
#        150
#        12030
#        25629
#        42790
#        50879
#        67982
#        76689
#        90473
#        105876
#        119674
#        131838
#        141642
#        149981
#        162057
#        171875
#        177234
#        185138
#        188376
#        199852
#        213805
#        227018
#        242495
#        253138
#        271203
#        285800
#        298426
#
# Disc length: 4199 seconds
#
# Revision: 0
# Processed by: cddbd v1.5.2PL0 Copyright (c) Steve Scherf et al.
# Submitted via: ExactAudioCopy v1.0b1
#
DISCID=7710651a
DTITLE=Elvis Presley  - By Special Request !-From Louisiana To Tenness
DTITLE=ee, 03-30-1977  
DYEAR=1900
DGENRE=
TTITLE0=Love Me
TTITLE1=If You Love Me
TTITLE2=You Gave Me A Mountain
TTITLE3=Jailhouse Rock
TTITLE4=O Sole Mio-It's Now Or Never
TTITLE5=Little Sister
TTITLE6=Teddy Bear-Don't Be Cruel
TTITLE7=And I Love You So
TTITLE8=Fever
TTITLE9=Love Me Tender
TTITLE10=Hurt
TTITLE11=Hound Dog
TTITLE12=Danny Boy (Sung By Sherill Nielsen)
TTITLE13=Walk With Me (Sung By J.D. Summer and The Stamps Quartet)
TTITLE14=Blue Suede Shoes
TTITLE15=Can't Help Falling In Love
TTITLE16=Closing Vamp
TTITLE17=Help Me (Partly Undubbed Version)
TTITLE18=My Boy (Undubbed Version)
TTITLE19=Loving Arms (Undubbed Version)
TTITLE20=It's Midnight (Partly Undubbed Version)
TTITLE21=If You Talk In Your Sleep (Undubbed Version)
TTITLE22=Thinking About Your (Unedited, Undubbed Version)
TTITLE23=Good Time Charlie's Got The Blues (Undubbed Version)
TTITLE24=Talk About The Good Times (Undubbed Version)
TTITLE25=Girl Of Mine (Undubbed Version)
EXTD=
EXTT0=
EXTT1=
EXTT2=
EXTT3=
EXTT4=
EXTT5=
EXTT6=
EXTT7=
EXTT8=
EXTT9=
EXTT10=
EXTT11=
EXTT12=
EXTT13=
EXTT14=
EXTT15=
EXTT16=
EXTT17=
EXTT18=
EXTT19=
EXTT20=
EXTT21=
EXTT22=
EXTT23=
EXTT24=
EXTT25=
PLAYORDER=
